<svg xmlns="http://www.w3.org/2000/svg" width="155" height="77">
    <g fill="#007ac5">
        <path d="M49 50.3V23.5h9.5v3H54v23.8h-5zm10 0l2.6-26.8h7.9L72 50.3h-5l-.5-7.2h-2.3l-.4 7.2H59zm5.5-10.1h2l-1-13.4h-.2l-.8 13.4zm10 .7h5V47l.2.7.6.2.6-.1.2-.3v-.3V39.6v-.2-.2c0-.4-.1-.7-.4-1-.3-.2-.8-.3-1.6-.3h-2v-3h2c1 0 1.5-.2 1.7-.5.2-.4.3-.8.3-1.5v-6.4-.1c0-.2 0-.3-.2-.4a.5.5 0 0 0-.5-.3c-.3 0-.5.1-.6.3-.2.1-.3.3-.3.5v5.4h-4.8v-4.5a17.4 17.4 0 0 1 .2-1.7c.2-.7.5-1.3 1-1.8s1.5-.9 2.7-.9h4c1.4 0 2.4.4 2.9 1a4.6 4.6 0 0 1 .8 2.8V33.5l-.3 1c-.2.3-.5.7-1 1-.4.4-1 .5-2 .5v.4h.2c1 0 1.7.2 2.1.6a2.8 2.8 0 0 1 1 1.9l.1.6v6.8c0 1.8-.3 3-1 3.5a3.6 3.6 0 0 1-2.4.9h-4.5a48.6 48.6 0 0 0-1.6-.2c-.6-.1-1.1-.5-1.6-1-.5-.6-.8-1.7-.8-3.2V41zm15.2 9.4V23.5h11.6v26.8h-5V26.4h-1.6v23.9h-5zm15.2 0V23.5h7.9a9.2 9.2 0 0 1 1.3 0 3 3 0 0 1 1.6 1.1c.5.6.8 1.7.8 3.3v8.7c0 1.7-.3 2.8-.9 3.4-.5.5-1.1.9-1.8 1H110v9.3h-5zm5-12.2h.5c.4 0 .7 0 .8-.3.2-.2.3-.5.3-1v-9-.3-.3l-.4-.5c-.1-.2-.3-.3-.7-.3h-.5v11.7zm22-10.3V47l-.2.9a4 4 0 0 1-.8 2c-.5.6-1.4.9-2.8.9H124c-1.3 0-2.1-.3-2.6-.9-.5-.5-.9-1.1-1-1.8l-.1-1V27.8 27l.1-.9c.1-.8.4-1.5 1-2.1.4-.7 1.3-1 2.6-1h4.1a8.3 8.3 0 0 1 1.3.2c.6.1 1.1.5 1.7 1.1.5.7.7 1.9.7 3.5zm-6.6-1v20c0 .3 0 .5.2.7l.4.3h.2c.2 0 .4-.2.5-.3.2-.2.2-.4.2-.6v-20-.1-.1c0-.2 0-.3-.2-.5a.7.7 0 0 0-.6-.2c-.2 0-.4 0-.5.2a1 1 0 0 0-.2.7zm9.8 23.5V23.5h6.7L145 41l3.4-17.6h6.5v26.8h-5V33.4l-2.8 16.9H143L140 33.5v16.8h-5zM26.7 23.7v19.8c-7.3.3-18.1 6.7-14 20.3 4.6 14.7 26.3 11.3 26.9.3.4-4-4.8-11.6-13-5.6v-8.3H46v18.2a26.6 26.6 0 1 1-19.3-44.7z"/>
        <path d="M36.4.1a43 43 0 0 0 0 48.5 43 43 0 0 0 0-48.5zm0 46.6a18 18 0 0 1 0-17.2 18 18 0 0 1 0 17.2zm0-35a47.9 47.9 0 0 0-5.1 20.8c-1.5-10.3-.5-19 5.1-29 5.5 10 6.6 18.7 5.2 29a48.3 48.3 0 0 0-5.2-20.8zM87.2 63.4h-.5v3.1h.6c.7 0 1.4-.3 1.4-1.6 0-1.2-.6-1.5-1.5-1.5zM56 68.2h-.5v3.2h.5c.9 0 1.5-.3 1.5-1.5 0-1.3-.7-1.7-1.4-1.7z"/>
        <path d="M49 58.2v18.5h106V58.2H49zm7.8 15.4h-4.3V61.2h6.8v2.2h-3.8V66h1.3c1.8 0 3.7.8 3.7 3.8 0 3.2-2 3.8-3.7 3.8zm17-2.8c-.6 2.4-1.3 3-3.4 3-.6 0-1.3-.1-1.5-.3v-2.2l.7.1c.3 0 .6 0 .8-.4l-2.9-9.8h3.2l1.3 7.2 1.5-7.2h3L74 70.8zm14.3-2h-1.4v4.8h-3V61.2h4.4c1.7 0 3.6.6 3.6 3.8 0 3-1.8 3.8-3.6 3.8zm18.3-5.3h-4V66h3.6v2.3h-3.5v3h4v2.3h-7V61.2h7v2.3zm15.4 10.1h-3v-5.3h-2v5.3h-3V61.2h3V66h2v-4.8h3v12.4zm15.7 0h-2.8v-6.1l-2 6.1h-3V61.2h2.9v6.3l2-6.3h3v12.4zm14.9-10h-4V66h3.6v2.3h-3.6v3h4v2.3h-7V61.2h7v2.3z"/>
    </g>
</svg>